<?xml version="1.0" encoding="UTF-8" standalone="no"?>
<!-- Created with Inkscape (http://www.inkscape.org/) -->

<svg
   xmlns:dc="http://purl.org/dc/elements/1.1/"
   xmlns:cc="http://creativecommons.org/ns#"
   xmlns:rdf="http://www.w3.org/1999/02/22-rdf-syntax-ns#"
   xmlns:svg="http://www.w3.org/2000/svg"
   xmlns="http://www.w3.org/2000/svg"
   xmlns:sodipodi="http://sodipodi.sourceforge.net/DTD/sodipodi-0.dtd"
   xmlns:inkscape="http://www.inkscape.org/namespaces/inkscape"
   width="776.53961"
   height="623.8974"
   id="svg3566"
   version="1.1"
   inkscape:version="0.48.4 r9939"
   sodipodi:docname="New document 5">
  <defs
     id="defs3568" />
  <sodipodi:namedview
     id="base"
     pagecolor="#ffffff"
     bordercolor="#666666"
     borderopacity="1.0"
     inkscape:pageopacity="0.0"
     inkscape:pageshadow="2"
     inkscape:zoom="0.49497475"
     inkscape:cx="-787.98443"
     inkscape:cy="-19.925349"
     inkscape:document-units="px"
     inkscape:current-layer="layer1"
     showgrid="false"
     inkscape:window-width="1920"
     inkscape:window-height="1055"
     inkscape:window-x="1366"
     inkscape:window-y="0"
     inkscape:window-maximized="1"
     fit-margin-top="0"
     fit-margin-left="0"
     fit-margin-right="0"
     fit-margin-bottom="0" />
  <metadata
     id="metadata3571">
    <rdf:RDF>
      <cc:Work
         rdf:about="">
        <dc:format>image/svg+xml</dc:format>
        <dc:type
           rdf:resource="http://purl.org/dc/dcmitype/StillImage" />
        <dc:title></dc:title>
      </cc:Work>
    </rdf:RDF>
  </metadata>
  <g
     inkscape:label="Layer 1"
     inkscape:groupmode="layer"
     id="layer1"
     transform="translate(-1.8492334,-0.68178999)">
    <g
       id="g422"
       transform="matrix(1.25,0,0,-1.25,746.04589,151.21053)">
      <path
         inkscape:connector-curvature="0"
         d="m 0,0 c 17.71,-4.445 28.958,-20.424 25.125,-35.696 l -80.874,-322.243 c -3.833,-15.273 -21.294,-24.045 -39.003,-19.601 l -474.728,119.144 c -17.712,4.445 -28.961,20.423 -25.128,35.696 l 80.875,322.243 c 3.833,15.272 21.294,24.046 39.005,19.601 L 0,0 z"
         style="fill:#333132;fill-opacity:1;fill-rule:nonzero;stroke:none"
         id="path424" />
    </g>
    <path
       inkscape:connector-curvature="0"
       d="m 722.50969,145.30353 c 21.73875,5.45625 35.54625,25.07125 30.84125,43.81625 l -95.33375,379.86 c -4.70625,18.7475 -26.13875,29.51625 -47.8775,24.06 L 39.544726,449.83603 C 17.803426,444.37978 3.9959263,424.76728 8.7009263,406.01853 L 104.03594,26.159794 c 4.70375,-18.74625 26.1375,-29.5162498 47.87875,-24.0599998 l 570.595,143.2037358 z"
       style="fill:#393839;fill-opacity:1;fill-rule:nonzero;stroke:none"
       id="path428" />
    <g
       id="g430"
       transform="matrix(1.25,0,0,-1.25,90.031136,216.55965)">
      <path
         inkscape:connector-curvature="0"
         d="m 0,0 c -2.124,0.533 -4.25,-0.653 -4.75,-2.647 -0.502,-2.001 0.811,-4.05 2.935,-4.583 2.129,-0.535 4.254,0.652 4.757,2.652 C 3.442,-2.584 2.129,-0.534 0,0"
         style="fill:#333132;fill-opacity:1;fill-rule:nonzero;stroke:none"
         id="path432" />
    </g>
    <g
       id="g434"
       transform="matrix(1.25,0,0,-1.25,684.59579,380.20978)">
      <path
         inkscape:connector-curvature="0"
         d="m 0,0 c -4.202,-5.387 -11.97,-6.344 -17.357,-2.143 -5.387,4.204 -6.349,11.973 -2.146,17.359 4.202,5.385 11.976,6.348 17.362,2.145 C 3.246,13.158 4.202,5.384 0,0"
         style="fill:#333132;fill-opacity:1;fill-rule:nonzero;stroke:none"
         id="path436" />
    </g>
    <g
       id="g438"
       transform="matrix(1.25,0,0,-1.25,672.32199,196.5639)">
      <path
         inkscape:connector-curvature="0"
         d="m 0,0 -400.3,100.465 c -3.096,0.777 -6.178,0.031 -8.43,-1.717 -1.51,-1.176 -2.656,-2.787 -3.147,-4.743 l -61.352,-244.455 c -1.221,-4.866 1.984,-9.861 7.156,-11.159 l 400.3,-100.464 c 3.434,-0.862 6.848,0.149 9.13,2.334 1.153,1.106 2.036,2.489 2.446,4.123 L 7.155,-11.161 C 8.377,-6.291 5.171,-1.298 0,0"
         style="fill:#4d4d4f;fill-opacity:1;fill-rule:nonzero;stroke:none"
         id="path440" />
    </g>
    <g
       id="g442"
       transform="matrix(1.25,0,0,-1.25,410.93526,130.96278)">
      <path
         inkscape:connector-curvature="0"
         d="M 0,0 -115.703,-92.466 34.955,-8.773 0,0 z"
         style="fill:#5b5b5b;fill-opacity:1;fill-rule:nonzero;stroke:none"
         id="path444" />
    </g>
    <g
       id="g446"
       transform="matrix(1.25,0,0,-1.25,107.07152,402.92703)">
      <path
         inkscape:connector-curvature="0"
         d="M 0,0 73.593,-18.47 384.148,182.17 310.117,200.75 0,0 z"
         style="fill:#5b5b5b;fill-opacity:1;fill-rule:nonzero;stroke:none"
         id="path448" />
    </g>
    <g
       id="g450"
       transform="matrix(1.25,0,0,-1.25,253.30326,439.62728)">
      <path
         inkscape:connector-curvature="0"
         d="m 0,0 73.593,-18.47 260.356,168.208 8.421,33.552 c 1.222,4.87 -1.984,9.863 -7.155,11.161 L 310.118,200.75 0,0 z"
         style="fill:#5b5b5b;fill-opacity:1;fill-rule:nonzero;stroke:none"
         id="path452" />
    </g>
  </g>
</svg>
